<svg xmlns="http://www.w3.org/2000/svg" width="550" viewBox="58 280 1324 250" height="104" version="1.0">
    <defs>
        <clipPath id="3a07b2e24f">
            <path d="M 0.558594 0.601562 L 1264.160156 0.601562 L 1264.160156 310.921875 L 0.558594 310.921875 Z M 0.558594 0.601562 "
                  clip-rule="nonzero"/>
        </clipPath>
        <clipPath id="0214bfb3f2">
            <path d="M 0.582031 0.800781 L 1263.023438 0.800781 L 1263.023438 310.894531 L 0.582031 310.894531 Z M 0.582031 0.800781 "
                  clip-rule="nonzero"/>
        </clipPath>
        <clipPath id="69971b0bc8">
            <path d="M 0.582031 0.800781 L 1263 0.800781 L 1263 310.894531 L 0.582031 310.894531 Z M 0.582031 0.800781 "
                  clip-rule="nonzero"/>
        </clipPath>
        <clipPath id="fd29dc262f">
            <rect x="0" width="1264" y="0" height="311"/>
        </clipPath>
        <clipPath id="6f3f6d7378">
            <rect x="0" width="1265" y="0" height="311"/>
        </clipPath>
        <clipPath id="2731363ab9">
            <rect x="0" width="1265" y="0" height="311"/>
        </clipPath>
    </defs>
    <g transform="matrix(1, 0, 0, 1, 88, 249)">
        <g clip-path="url(#2731363ab9)">
            <g clip-path="url(#3a07b2e24f)">
                <g transform="matrix(1, 0, 0, 1, 0, 0.000000000000028422)">
                    <g clip-path="url(#6f3f6d7378)">
                        <g clip-path="url(#0214bfb3f2)">
                            <g transform="matrix(1, 0, 0, 1, 0, 0.000000000000028422)">
                                <g clip-path="url(#fd29dc262f)">
                                    <g clip-path="url(#69971b0bc8)">
                                        <path fill="#061827"
                                              d="M 0.582031 0.800781 L 1262.765625 0.800781 L 1262.765625 310.894531 L 0.582031 310.894531 Z M 0.582031 0.800781 "
                                              fill-opacity="1" fill-rule="nonzero"/>
                                    </g>
                                </g>
                            </g>
                        </g>
                        <g fill="#00c5d1" fill-opacity="1">
                            <g transform="translate(7.738281, 228.963215)">
                                <g>
                                    <path d="M 142.296875 0 L 81.734375 0 L 81.734375 -24.390625 L 94.578125 -24.390625 L 69.109375 -58.625 L 52 -58.625 L 52 -24.390625 L 63.765625 -24.390625 L 63.765625 0 L 8.34375 0 L 8.34375 -24.390625 L 23.328125 -24.390625 L 23.328125 -114.703125 L 8.34375 -114.703125 L 8.34375 -139.09375 L 64.40625 -139.09375 L 64.40625 -114.703125 L 52 -114.703125 L 52 -81.953125 L 69.546875 -81.953125 L 94.15625 -114.703125 L 82.171875 -114.703125 L 82.171875 -139.09375 L 139.953125 -139.09375 L 139.953125 -114.703125 L 124.328125 -114.703125 L 91.15625 -72.96875 L 127.96875 -24.390625 L 142.296875 -24.390625 Z M 142.296875 0 "/>
                                </g>
                            </g>
                        </g>
                        <g fill="#00c5d1" fill-opacity="1">
                            <g transform="translate(151.955402, 228.963215)">
                                <g>
                                    <path d="M 133.953125 0 L 98.4375 0 L 70.828125 -53.0625 L 52 -53.0625 L 52 -24.390625 L 66.984375 -24.390625 L 66.984375 0 L 8.34375 0 L 8.34375 -24.390625 L 23.328125 -24.390625 L 23.328125 -114.703125 L 8.34375 -114.703125 L 8.34375 -139.09375 L 71.25 -139.09375 C 88.519531 -139.09375 101.789062 -135.5625 111.0625 -128.5 C 120.332031 -121.4375 124.96875 -110.914062 124.96875 -96.9375 C 124.96875 -87.519531 122.539062 -79.632812 117.6875 -73.28125 C 112.84375 -66.9375 106.425781 -62.195312 98.4375 -59.0625 L 117.265625 -24.390625 L 133.953125 -24.390625 Z M 94.15625 -96.296875 C 94.15625 -103.285156 92.082031 -108.097656 87.9375 -110.734375 C 83.800781 -113.378906 76.53125 -114.703125 66.125 -114.703125 L 52 -114.703125 L 52 -75.75 L 65.6875 -75.75 C 76.675781 -75.75 84.164062 -77.53125 88.15625 -81.09375 C 92.15625 -84.664062 94.15625 -89.734375 94.15625 -96.296875 Z M 94.15625 -96.296875 "/>
                                </g>
                            </g>
                        </g>
                        <g fill="#00c5d1" fill-opacity="1">
                            <g transform="translate(287.185625, 228.963215)">
                                <g>
                                    <path d="M 147.21875 -69.765625 C 147.21875 -50.078125 140.90625 -33.171875 128.28125 -19.046875 C 115.65625 -4.921875 98.070312 2.140625 75.53125 2.140625 C 52.851562 2.140625 35.453125 -4.921875 23.328125 -19.046875 C 11.203125 -33.171875 5.140625 -49.929688 5.140625 -69.328125 C 5.140625 -89.585938 11.554688 -106.632812 24.390625 -120.46875 C 37.234375 -134.3125 54.566406 -141.234375 76.390625 -141.234375 C 98.648438 -141.234375 116.019531 -134.207031 128.5 -120.15625 C 140.976562 -106.101562 147.21875 -89.304688 147.21875 -69.765625 Z M 116.1875 -68.90625 C 116.1875 -83.738281 112.765625 -95.289062 105.921875 -103.5625 C 99.078125 -111.84375 89.160156 -115.984375 76.171875 -115.984375 C 62.335938 -115.984375 52.207031 -111.59375 45.78125 -102.8125 C 39.363281 -94.039062 36.15625 -83.09375 36.15625 -69.96875 C 36.15625 -57.269531 39.296875 -46.285156 45.578125 -37.015625 C 51.859375 -27.742188 62.34375 -23.109375 77.03125 -23.109375 C 90.582031 -23.109375 100.492188 -27.351562 106.765625 -35.84375 C 113.046875 -44.332031 116.1875 -55.351562 116.1875 -68.90625 Z M 116.1875 -68.90625 "/>
                                </g>
                            </g>
                        </g>
                        <g fill="#00c5d1" fill-opacity="1">
                            <g transform="translate(437.179831, 228.963215)">
                                <g>
                                    <path d="M 156.84375 -114.703125 L 141.875 -114.703125 L 141.875 0 L 125.828125 0.21875 L 51.140625 -88.15625 L 50.28125 -88.15625 L 50.28125 -24.390625 L 69.546875 -24.390625 L 69.546875 0 L 8.5625 0 L 8.5625 -24.390625 L 23.53125 -24.390625 L 23.53125 -114.703125 L 6.203125 -114.703125 L 6.203125 -139.09375 L 44.078125 -139.09375 L 114.265625 -56.484375 L 115.125 -56.484375 L 115.125 -114.703125 L 95.015625 -114.703125 L 95.015625 -139.09375 L 156.84375 -139.09375 Z M 156.84375 -114.703125 "/>
                                </g>
                            </g>
                        </g>
                        <g fill="#00c5d1" fill-opacity="1">
                            <g transform="translate(597.4447, 228.963215)">
                                <g>
                                    <path d="M 147.21875 -69.765625 C 147.21875 -50.078125 140.90625 -33.171875 128.28125 -19.046875 C 115.65625 -4.921875 98.070312 2.140625 75.53125 2.140625 C 52.851562 2.140625 35.453125 -4.921875 23.328125 -19.046875 C 11.203125 -33.171875 5.140625 -49.929688 5.140625 -69.328125 C 5.140625 -89.585938 11.554688 -106.632812 24.390625 -120.46875 C 37.234375 -134.3125 54.566406 -141.234375 76.390625 -141.234375 C 98.648438 -141.234375 116.019531 -134.207031 128.5 -120.15625 C 140.976562 -106.101562 147.21875 -89.304688 147.21875 -69.765625 Z M 116.1875 -68.90625 C 116.1875 -83.738281 112.765625 -95.289062 105.921875 -103.5625 C 99.078125 -111.84375 89.160156 -115.984375 76.171875 -115.984375 C 62.335938 -115.984375 52.207031 -111.59375 45.78125 -102.8125 C 39.363281 -94.039062 36.15625 -83.09375 36.15625 -69.96875 C 36.15625 -57.269531 39.296875 -46.285156 45.578125 -37.015625 C 51.859375 -27.742188 62.34375 -23.109375 77.03125 -23.109375 C 90.582031 -23.109375 100.492188 -27.351562 106.765625 -35.84375 C 113.046875 -44.332031 116.1875 -55.351562 116.1875 -68.90625 Z M 116.1875 -68.90625 "/>
                                </g>
                            </g>
                        </g>
                        <g fill="#00c5d1" fill-opacity="1">
                            <g transform="translate(749.792747, 228.963215)">
                                <g>
                                    <path d="M 134.59375 -92.015625 L 110.203125 -89.875 L 105.921875 -114.703125 L 83.875 -114.703125 L 83.875 -24.390625 L 106.5625 -24.390625 L 106.5625 0 L 33.8125 0 L 33.8125 -24.390625 L 55.203125 -24.390625 L 55.203125 -114.703125 L 33.171875 -114.703125 L 28.890625 -89.875 L 4.5 -92.015625 L 8.765625 -139.09375 L 130.3125 -139.09375 Z M 134.59375 -92.015625 "/>
                                </g>
                            </g>
                        </g>
                        <g fill="#00c5d1" fill-opacity="1">
                            <g transform="translate(889.088548, 228.963215)">
                                <g>
                                    <path d="M 147.21875 -69.765625 C 147.21875 -50.078125 140.90625 -33.171875 128.28125 -19.046875 C 115.65625 -4.921875 98.070312 2.140625 75.53125 2.140625 C 52.851562 2.140625 35.453125 -4.921875 23.328125 -19.046875 C 11.203125 -33.171875 5.140625 -49.929688 5.140625 -69.328125 C 5.140625 -89.585938 11.554688 -106.632812 24.390625 -120.46875 C 37.234375 -134.3125 54.566406 -141.234375 76.390625 -141.234375 C 98.648438 -141.234375 116.019531 -134.207031 128.5 -120.15625 C 140.976562 -106.101562 147.21875 -89.304688 147.21875 -69.765625 Z M 116.1875 -68.90625 C 116.1875 -83.738281 112.765625 -95.289062 105.921875 -103.5625 C 99.078125 -111.84375 89.160156 -115.984375 76.171875 -115.984375 C 62.335938 -115.984375 52.207031 -111.59375 45.78125 -102.8125 C 39.363281 -94.039062 36.15625 -83.09375 36.15625 -69.96875 C 36.15625 -57.269531 39.296875 -46.285156 45.578125 -37.015625 C 51.859375 -27.742188 62.34375 -23.109375 77.03125 -23.109375 C 90.582031 -23.109375 100.492188 -27.351562 106.765625 -35.84375 C 113.046875 -44.332031 116.1875 -55.351562 116.1875 -68.90625 Z M 116.1875 -68.90625 "/>
                                </g>
                            </g>
                        </g>
                        <g fill="#00c5d1" fill-opacity="1">
                            <g transform="translate(1039.082728, 228.963215)">
                                <g>
                                    <path d="M 124.96875 -93.71875 C 124.96875 -77.882812 119.796875 -66.082031 109.453125 -58.3125 C 99.109375 -50.539062 87.085938 -46.65625 73.390625 -46.65625 L 52 -46.65625 L 52 -24.390625 L 73.390625 -24.390625 L 73.390625 0 L 8.34375 0 L 8.34375 -24.390625 L 23.328125 -24.390625 L 23.328125 -114.703125 L 8.34375 -114.703125 L 8.34375 -139.09375 L 72.109375 -139.09375 C 89.367188 -139.09375 102.492188 -135.023438 111.484375 -126.890625 C 120.472656 -118.765625 124.96875 -107.707031 124.96875 -93.71875 Z M 94.15625 -93.296875 C 94.15625 -100.140625 92.265625 -105.414062 88.484375 -109.125 C 84.703125 -112.84375 78.03125 -114.703125 68.46875 -114.703125 L 52 -114.703125 L 52 -70.828125 L 68.046875 -70.828125 C 77.890625 -70.828125 84.703125 -72.894531 88.484375 -77.03125 C 92.265625 -81.164062 94.15625 -86.585938 94.15625 -93.296875 Z M 94.15625 -93.296875 "/>
                                </g>
                            </g>
                        </g>
                        <g fill="#c6ff3a" fill-opacity="1">
                            <g transform="translate(1167.043139, 228.963215)">
                                <g>
                                    <path d="M 78.953125 -118.96875 L 53.703125 -104.640625 L 78.953125 -90.734375 L 72.75 -81.09375 L 49.21875 -96.296875 L 50.28125 -71.25 L 38.515625 -71.25 L 39.59375 -96.078125 L 16.265625 -81.09375 L 10.0625 -90.734375 L 35.3125 -104.640625 L 10.0625 -118.96875 L 16.265625 -128.609375 L 39.59375 -112.984375 L 38.515625 -139.09375 L 50.28125 -139.09375 L 49 -112.984375 L 72.75 -128.609375 Z M 78.953125 -118.96875 "/>
                                </g>
                            </g>
                        </g>
                    </g>
                </g>
            </g>
        </g>
    </g>
</svg>